<svg width="1920" height="425" fill="none" xmlns="http://www.w3.org/2000/svg"><path d="M2259.5 62.916c-5.27.074-10.52.9-16.54.985-103.09 1.447-103.82-50.473-206.15-49.036-103.09 1.446-102.36 53.365-204.7 54.801-103.08 1.447-103.81-50.472-206.14-49.036-103.09 1.447-102.36 53.366-204.7 54.802-103.08 1.447-103.81-50.472-206.14-49.036-103.09 1.447-102.36 53.366-204.7 54.802-103.083 1.446-103.811-50.473-206.145-49.037-103.087 1.447-102.358 53.366-204.692 54.802-103.087 1.447-103.815-50.472-206.902-49.025C290.357 39.374 291.086 91.293 188 92.74 85.666 94.175 84.937 42.257-18.15 43.703c-102.332 1.437-101.604 53.355-204.69 54.802-63.206.887-87.56-18.339-120.879-32.923L-353 561.5H962.5l1280.46 14 16.54-512.584z" fill="url(#paint0_linear)" opacity=".2"/><path d="M2229.67 51.204c-5.27.097-10.52.948-16.54 1.06-103.08 1.914-104.04-50-206.37-48.1-103.08 1.915-102.12 53.83-204.44 55.731-103.08 1.915-104.05-50-206.37-48.1-103.08 1.915-102.12 53.83-204.44 55.732-103.08 1.915-104.05-50-206.37-48.1-103.08 1.915-102.12 53.83-204.443 55.731-103.079 1.915-104.043-50-206.369-48.1C671.249 28.975 672.214 80.89 569.887 82.79c-103.079 1.915-104.043-50-207.122-48.086-102.326 1.901-101.362 53.817-204.441 55.732-102.326 1.9-103.29-50.015-206.369-48.1-102.326 1.9-101.362 53.816-204.441 55.731-63.201 1.174-87.642-17.94-121.027-32.374L-362 487.5 973 454l1256.67-19.5V51.204z" fill="url(#paint1_linear)" opacity=".2"/><g opacity=".04" clip-path="url(#clip0)" filter="url(#filter0_d)" fill="#1A7F72"><path d="M41.79 202.19c7.357 3.117 25.184 2.834 25.184 2.834.283 0-3.961-11.62-4.244-12.47-3.962-8.219-16.413-21.823-26.317-20.406-7.358.851-11.32 8.219-9.622 15.021 1.698 7.085 8.773 12.187 14.998 15.021z"/><path d="M48.015 254.053c7.64 1.134 23.487-3.401 24.902-3.968 2.547 9.069 5.942 17.855 9.621 26.924 2.264 5.101 4.528 10.203 7.075 15.304-1.415-2.267-2.83-3.968-3.113-4.251-5.943-6.802-21.506-16.721-30.845-12.753-6.791 2.834-8.772 11.052-5.376 17.287 3.395 6.235 11.885 9.353 18.393 10.487 6.792 1.133 20.375-2.551 24.053-3.685.85 1.984 1.981 3.968 2.83 5.668 4.528 9.353 9.339 18.422 13.583 27.491 1.415 3.117 2.83 6.518 4.245 9.636-1.415-1.984-2.264-3.401-2.547-3.684-5.942-6.802-21.506-16.722-30.845-12.754-6.791 2.834-8.772 11.053-5.376 17.288 3.396 6.235 11.885 9.353 18.394 10.486 6.508.85 19.242-2.267 23.487-3.401 1.415 3.401 2.547 6.802 3.678 9.92.849 2.267 1.698 4.534 2.264 6.801.566 2.268 1.132 4.535 1.981 6.802 1.132 4.251 2.264 8.786 3.113 13.037.566 2.834 1.132 5.951 1.698 8.786-1.415-3.118-4.528-9.353-4.811-9.92-4.81-7.652-18.676-19.838-28.58-17.288-7.075 1.701-10.188 9.636-7.924 16.155 2.547 6.801 10.187 11.053 16.696 13.036 7.074 2.268 22.921.284 24.902 0a611.404 611.404 0 002.547 13.604c1.697 8.786 2.829 17.004 3.678 23.806h6.509c-1.132-7.085-2.547-15.587-4.528-24.94-.849-4.818-1.981-9.919-3.113-15.304 1.132-.566 7.924-3.117 13.866-6.518 5.094 5.668 18.677 12.187 20.375 13.037-1.698 4.534-3.679 8.785-5.377 12.753-3.395 7.652-6.508 14.737-9.338 20.689h7.074c2.547-5.385 5.094-11.62 7.924-18.422 1.981-4.534 3.679-9.352 5.659-14.453 1.981.283 17.545 3.684 24.903 1.983 6.508-1.417 14.714-5.384 17.544-11.903 2.83-6.518.283-14.454-6.791-16.721-9.621-3.117-24.336 7.652-29.713 15.021-.283.567-3.113 5.385-5.094 8.785.849-1.983 1.415-3.967 2.264-6.235 1.415-4.251 2.83-8.502 4.528-13.036.566-2.268 1.415-4.535 1.981-6.802.849-2.267 1.132-4.818 1.698-7.085 1.414-5.385 2.263-11.053 3.395-17.005 3.679 1.417 16.696 5.952 23.771 5.385 6.791-.567 15.28-2.834 19.242-9.069 3.962-5.952 2.547-14.17-3.962-17.571-9.055-4.818-25.185 3.967-31.693 10.486-.283.283-4.528 5.668-6.792 8.502.566-3.401 1.132-6.802 1.415-10.486 1.132-10.203 2.264-20.405 3.113-30.608l.849-9.353c1.415.567 16.696 6.235 24.336 5.668 6.792-.566 15.281-2.834 19.243-9.069 3.961-5.951 2.546-14.17-3.962-17.571-9.055-4.818-25.185 3.968-31.694 10.486-.566.567-6.508 7.936-7.923 9.92.849-6.802 1.415-13.887 2.547-20.406 1.415-9.352 3.395-18.421 5.942-26.924.566.284 16.696 6.235 24.619 5.669 6.792-.567 15.281-2.835 19.243-9.07 3.962-5.951 2.547-14.17-3.962-17.571-9.055-4.818-25.185 3.968-31.693 10.486-.566.567-6.792 8.503-7.924 9.92.283-.567.283-1.134.283-1.701 2.83-9.069 6.792-17.571 10.753-25.507 2.264-4.534 4.811-8.785 7.358-12.753 2.83 1.417 16.13 7.935 23.204 8.219 6.792.283 15.564-1.134 20.092-6.802 4.527-5.385 3.961-13.887-1.981-17.855-8.49-5.668-25.468 1.134-32.826 6.802l-6.508 6.519c1.132-1.701 2.264-3.685 3.395-5.385a190.24 190.24 0 0112.452-17.005c2.263-2.834 4.244-5.384 6.225-7.652 3.679 0 18.111-.567 24.336-3.401 6.226-2.834 13.3-8.218 14.715-15.304 1.415-6.801-2.83-14.17-10.187-14.737-10.187-1.133-22.072 12.753-25.751 21.256-.283.85-3.962 12.47-3.962 12.47h.283c-1.981 2.267-3.962 4.534-6.225 7.085-3.962 4.818-8.49 10.486-12.734 16.721a183.29 183.29 0 00-13.3 21.256c-4.245 7.935-8.207 16.437-11.32 25.506v.284c0-3.118 0-11.337-.283-11.903-1.132-9.069-8.772-25.791-18.676-27.774-7.358-1.417-13.3 4.251-13.866 11.336-.566 7.085 4.527 14.454 9.621 18.988 5.66 5.102 21.507 10.203 22.921 10.486-2.829 8.786-5.093 18.138-6.791 27.774-.849 5.385-1.698 11.053-2.547 16.438v-5.101c-1.132-9.069-8.772-25.79-18.677-27.774-7.357-1.417-13.3 4.251-13.866 11.336-.565 7.085 4.528 14.454 9.622 18.988 5.093 4.535 18.676 9.069 22.072 10.203-.283 2.267-.566 4.251-.849 6.518-1.132 10.203-2.264 20.406-3.962 30.325-.565 3.401-1.131 7.085-1.697 10.486v-4.534c-1.132-9.069-8.773-25.79-18.677-27.774-7.357-1.417-13.3 4.251-13.866 11.336-.566 7.085 4.528 14.454 9.621 18.988 4.811 4.251 17.262 8.786 21.507 9.92-.849 3.4-1.415 7.085-2.264 10.486-.566 2.267-1.132 4.534-1.981 6.801-.849 2.268-1.415 4.535-2.264 6.802-1.415 4.251-3.113 8.503-4.81 12.754-1.132 2.834-2.264 5.668-3.396 8.218.566-3.4 1.415-10.486 1.415-11.052 0-5.952-1.981-15.871-6.226-22.673 0-.85 0-1.701-.283-2.551-1.132-7.085-7.64-12.186-14.715-10.202-9.904 2.55-16.13 19.838-16.695 28.907 0 .567.282 6.519.565 10.203-.565-2.267-.848-4.251-1.414-6.519-1.132-4.251-2.264-8.785-3.396-13.32-.566-2.267-1.415-4.534-1.981-6.801-.566-2.268-1.698-4.535-2.264-6.802-1.981-5.385-4.245-10.77-6.508-15.871 3.678-.85 17.261-4.251 22.638-8.502 5.377-4.252 11.036-11.053 11.036-18.138 0-7.086-5.659-13.037-13.017-12.47-10.187 1.133-18.959 17.287-20.657 26.073 0 .567-.849 7.085-.849 10.77-1.415-3.118-2.83-6.235-4.528-9.636-4.528-9.069-9.338-18.138-14.149-27.207l-4.245-8.503c1.415-.283 17.545-3.967 23.488-8.785 5.376-4.251 11.036-11.053 11.036-18.138 0-7.086-5.66-13.037-13.017-12.47-10.187 1.133-18.96 17.287-20.658 26.073 0 .567-.849 10.203-1.132 12.47-2.83-5.668-5.942-11.903-8.772-17.855-3.962-8.502-7.357-17.288-9.904-25.79.566-.283 17.544-3.967 23.77-8.785 5.377-4.252 11.036-11.053 11.036-18.139 0-7.085-5.659-13.036-13.017-12.469-10.187 1.133-18.96 17.287-20.657 26.073-.283.567-1.132 10.77-1.132 12.753-.283-.566-.283-1.133-.566-1.417-2.83-9.069-4.245-18.421-5.094-27.207-.566-5.101-.849-9.919-.849-14.737 3.113-.283 17.828-2.267 24.053-5.952 5.943-3.4 12.169-9.635 13.018-16.721.848-7.085-4.245-13.603-11.603-13.603-10.187 0-20.657 15.02-23.487 23.806-.283.567-1.132 5.385-1.98 9.069v-6.518c0-7.652.565-14.738.848-20.972.283-3.685.566-6.802 1.132-9.636 2.83-1.984 14.715-10.486 18.394-16.438 3.395-5.952 6.508-14.17 3.678-20.972-2.546-6.519-10.187-10.203-16.695-6.802-9.056 4.818-11.32 22.956-9.904 32.025 0 .85 3.678 12.753 3.678 12.47h.283c-.283 2.834-.849 5.952-1.132 9.353-.566 6.234-1.132 13.32-1.415 20.972-.283 7.652-.283 16.154.566 24.94.85 8.785 1.981 18.138 4.528 27.49v.284c-1.698-2.551-6.225-9.353-6.791-9.92-5.943-6.801-21.507-16.721-30.845-12.753-6.792 2.834-8.773 11.053-5.377 17.288 3.396 6.235 11.602 9.352 18.394 10.486z"/><path d="M222.613 206.157c.283 0 3.113-11.903 3.396-12.754 1.132-9.069-1.698-27.207-10.754-31.741-6.508-3.118-13.866.567-16.412 7.368-2.547 6.802.566 15.021 4.244 20.689 4.528 6.802 19.526 16.438 19.526 16.438zm112.343 75.669c4.81 1.984 16.695 1.7 16.695 1.7s-2.546-7.652-2.829-8.219c-2.547-5.384-10.754-14.453-17.262-13.32-4.811.567-7.358 5.385-6.226 9.919.849 4.535 5.66 7.936 9.622 9.92z"/><path d="M338.917 315.835c5.094.85 15.564-2.267 16.413-2.55 1.698 5.951 3.962 11.903 6.226 17.571 1.415 3.401 3.112 6.802 4.527 9.919-.849-1.417-1.698-2.551-1.98-2.834-3.962-4.534-14.149-11.053-20.375-8.219-4.528 1.984-5.66 7.085-3.396 11.337 2.264 4.251 7.641 6.235 12.168 6.801 4.528.567 13.583-1.7 15.847-2.55.566 1.133 1.132 2.55 1.981 3.684a539.177 539.177 0 019.055 18.138c1.132 1.984 1.981 4.251 2.83 6.235-.849-1.134-1.698-2.267-1.698-2.551-3.961-4.534-14.149-11.053-20.374-8.218-4.528 1.983-5.66 7.085-3.396 11.336 2.264 4.251 7.641 6.235 12.168 6.802 4.245.566 12.734-1.417 15.564-2.268.849 2.268 1.698 4.535 2.547 6.519.566 1.417 1.132 2.834 1.415 4.534.283 1.417.849 3.118 1.132 4.535.566 2.834 1.415 5.951 1.98 8.502.566 1.984.849 3.684 1.132 5.668-.849-1.984-2.829-6.235-3.112-6.518-3.113-5.101-12.451-13.037-18.677-11.336-4.811 1.133-6.791 6.235-5.094 10.486 1.698 4.534 6.792 7.368 11.037 8.502 4.81 1.417 14.997 0 16.412 0 .566 3.117 1.132 6.235 1.698 9.069 1.132 5.952 1.698 11.053 2.547 15.587h4.245c-.849-4.818-1.698-10.202-2.83-16.437-.566-3.118-1.415-6.519-2.264-9.92.849-.283 5.094-1.983 9.055-4.251 3.396 3.685 12.169 7.936 13.3 8.503-1.131 2.834-2.263 5.668-3.678 8.502-2.264 5.101-4.245 9.636-6.226 13.603h4.811A176.61 176.61 0 00419 421.83c1.132-3.118 2.547-6.235 3.679-9.636 1.132.283 11.602 2.267 16.413 1.417 4.245-.85 9.621-3.401 11.602-7.652 1.981-4.251.283-9.352-4.245-11.053-6.225-2.267-16.129 5.101-19.525 9.919-.283.284-2.264 3.685-3.396 5.669.566-1.418 1.132-2.551 1.415-3.968 1.132-2.834 1.981-5.668 2.83-8.502.566-1.417.849-2.835 1.415-4.535.566-1.417.849-3.117 1.132-4.535.849-3.684 1.698-7.368 2.263-11.052 2.547.85 11.037 3.967 15.564 3.684 4.528-.284 10.188-1.984 12.734-5.952 2.547-3.967 1.698-9.352-2.546-11.619-5.943-3.118-16.696 2.55-20.941 6.801-.283.284-2.83 3.685-4.528 5.385.283-2.267.849-4.534 1.132-6.802.849-6.518 1.415-13.32 1.981-20.122.283-1.983.566-4.251.566-6.235.849.284 11.036 4.252 16.13 3.685 4.528-.284 10.187-1.984 12.734-5.952 2.547-3.968 1.698-9.352-2.547-11.62-5.942-3.117-16.696 2.551-20.94 6.802-.283.284-4.245 5.102-5.094 6.519l1.698-13.604c.849-6.235 2.264-12.187 3.962-17.855.283.284 11.036 4.251 16.13 3.685 4.527-.284 10.187-1.984 12.734-5.952 2.546-3.968 1.697-9.352-2.547-11.62-5.943-3.117-16.696 2.551-20.941 6.802-.283.283-4.527 5.668-5.093 6.518 0-.283.283-.566.283-1.133 1.981-5.952 4.244-11.62 7.074-16.721 1.415-3.118 3.113-5.668 4.811-8.502 1.981.85 10.753 5.101 15.281 5.384 4.527.284 10.187-.85 13.3-4.534 2.829-3.685 2.546-9.069-1.415-11.62-5.66-3.684-16.696.85-21.507 4.535l-4.244 4.251c.849-1.134 1.415-2.551 2.264-3.685 2.829-4.251 5.659-7.935 8.206-11.053 1.415-1.7 2.83-3.4 3.962-5.101 2.263 0 11.885-.283 15.846-2.267 3.962-1.984 8.773-5.385 9.622-10.203.849-4.534-1.698-9.352-6.509-9.636-6.791-.85-14.715 8.502-16.979 13.887-.283.567-2.546 8.219-2.546 8.219h.283a333.22 333.22 0 01-3.962 4.818c-2.547 3.118-5.66 6.802-8.489 11.053-2.83 4.251-5.943 8.786-8.773 13.887a99.514 99.514 0 00-7.357 16.721v-7.652c-.849-5.952-5.66-17.005-12.451-18.138-4.811-.85-8.773 2.834-9.056 7.368-.283 4.818 3.113 9.353 6.226 12.47 3.679 3.401 14.149 6.519 14.998 6.802-1.981 5.952-3.396 11.903-4.528 18.138-.566 3.685-1.132 7.086-1.698 10.77v-3.401c-.849-5.952-5.659-17.005-12.451-18.138-4.81-.85-8.772 2.834-9.055 7.368-.283 4.818 3.113 9.353 6.225 12.47 3.396 3.118 12.168 5.952 14.432 6.802-.283 1.417-.283 2.834-.566 4.251-.849 6.802-1.698 13.32-2.546 20.122-.283 2.268-.849 4.535-1.132 6.802v-2.834c-.849-5.952-5.66-17.004-12.451-18.138-4.811-.85-8.773 2.834-9.056 7.368-.283 4.818 3.113 9.353 6.226 12.47 3.113 2.835 11.319 5.669 14.149 6.519-.566 2.267-.849 4.534-1.415 6.802-.566 1.417-.849 3.117-1.132 4.534-.566 1.417-.849 2.834-1.415 4.535-1.132 2.834-1.981 5.668-3.113 8.219-.849 1.983-1.415 3.684-2.264 5.384.283-2.267.849-6.802.849-7.085 0-3.968-1.415-10.486-4.244-15.021v-1.7c-.849-4.535-5.094-7.935-9.622-6.802-6.508 1.701-10.47 13.037-10.753 18.989 0 .283.283 4.251.283 6.518l-.849-4.251c-.566-2.834-1.415-5.668-2.264-8.786-.566-1.417-.849-2.834-1.415-4.534-.283-1.417-1.131-3.118-1.697-4.535-1.415-3.401-2.83-7.085-4.245-10.486 2.547-.567 11.319-2.834 14.998-5.668 3.679-2.834 7.357-7.085 7.357-11.903 0-4.535-3.678-8.786-8.489-8.219-6.792.85-12.451 11.336-13.583 17.288 0 .283-.566 4.534-.566 7.085-.849-1.984-1.981-4.251-2.83-6.235l-9.338-17.855c-.849-1.7-1.981-3.684-2.83-5.384.849-.284 11.602-2.551 15.564-5.669 3.679-2.834 7.357-7.085 7.357-11.903 0-4.534-3.678-8.785-8.489-8.219-6.792.851-12.451 11.337-13.583 17.288 0 .567-.566 6.519-.849 8.219-1.981-3.968-4.245-8.219-5.943-12.186-2.546-5.669-4.81-11.337-6.508-17.005.283 0 11.602-2.551 15.564-5.668 3.679-2.834 7.357-7.085 7.357-11.903 0-4.535-3.678-8.786-8.489-8.219-6.792.85-12.451 11.336-13.583 17.288 0 .567-.566 7.085-.849 8.219 0-.284-.283-.567-.283-1.134-1.698-5.952-2.83-12.187-3.396-17.855-.283-3.401-.566-6.518-.566-9.636 1.981-.283 11.885-1.417 15.847-3.967 3.962-2.268 7.924-6.235 8.489-11.053.566-4.535-2.829-9.069-7.64-9.069-6.791 0-13.583 9.919-15.564 15.587 0 .284-.849 3.685-1.132 5.952v-4.251c0-5.102.283-9.636.566-13.887.283-2.268.566-4.535.566-6.519 1.981-1.417 9.621-6.802 12.168-10.769 2.264-3.685 4.245-9.353 2.547-13.604-1.698-4.251-6.508-6.802-11.036-4.534-5.943 3.117-7.641 15.02-6.509 20.972 0 .567 2.264 8.219 2.547 8.219-.283 1.984-.566 3.967-.849 6.235-.283 4.251-.849 8.785-.849 13.887 0 5.101 0 10.486.283 16.437.566 5.952 1.415 11.903 3.113 18.138v.284c-1.132-1.701-4.245-6.235-4.528-6.519-3.961-4.534-14.149-11.052-20.374-8.218-4.528 1.983-5.66 7.085-3.396 11.336 1.132 5.668 6.509 7.935 10.753 8.502z"/><path d="M453.807 284.377s2.264-7.935 2.264-8.219c.849-5.951-1.132-17.855-7.075-20.689-4.244-1.984-9.338.567-10.753 4.818-1.698 4.535.566 9.92 2.83 13.604 2.83 4.251 12.734 10.486 12.734 10.486zm325.708 7.653c4.528 1.983 15.564 1.7 15.564 1.7s-2.264-7.085-2.547-7.652c-2.264-5.101-9.904-13.32-16.13-12.47-4.527.567-6.791 5.101-5.942 9.352.849 4.252 5.093 7.652 9.055 9.07z"/><path d="M783.194 324.054c4.528.567 14.432-2.267 15.281-2.267 1.415 5.385 3.679 11.053 5.943 16.438l4.245 9.352c-.849-1.417-1.698-2.55-1.698-2.55-3.679-4.252-13.3-10.203-18.96-7.653-4.245 1.701-5.376 6.802-3.396 10.487 2.264 3.967 7.075 5.668 11.32 6.518 4.244.567 12.451-1.7 14.714-2.267l1.698 3.401c2.83 5.668 5.66 11.336 8.207 17.004l2.546 5.952c-.848-1.134-1.414-2.268-1.697-2.268-3.679-4.251-13.3-10.202-18.96-7.652-4.245 1.701-5.377 6.802-3.396 10.486 2.264 3.968 7.075 5.669 11.319 6.519 3.962.567 11.886-1.417 14.432-2.267.849 1.983 1.698 3.967 2.264 6.235.566 1.417.849 2.834 1.415 4.251.283 1.417.849 2.834 1.132 4.251.566 2.55 1.415 5.385 1.981 7.935.283 1.701.849 3.685 1.132 5.385-.849-1.984-2.83-5.668-2.83-6.235-2.83-4.818-11.602-12.187-17.545-10.486-4.244 1.134-6.225 5.951-4.81 9.919 1.414 4.251 6.225 6.802 10.187 7.936 4.245 1.417 14.149 0 15.281 0l1.698 8.502c.849 5.385 1.698 10.486 2.264 14.737h3.961c-.566-4.534-1.698-9.636-2.83-15.304-.566-2.834-1.132-5.952-1.98-9.352.848-.284 4.81-1.984 8.489-3.968 3.113 3.401 11.319 7.652 12.451 7.935-1.132 2.834-2.264 5.385-3.396 7.936-1.981 4.818-3.961 9.069-5.659 12.753h4.527c1.415-3.401 3.113-7.085 4.811-11.336 1.132-2.834 2.264-5.668 3.396-8.786 1.132.284 10.753 2.267 15.281 1.134 3.961-.85 9.055-3.118 10.753-7.369 1.698-3.968.283-8.786-3.962-10.203-5.942-1.983-14.998 4.818-18.394 9.353-.283.283-1.98 3.401-3.112 5.385.566-1.134.849-2.551 1.415-3.685.848-2.55 1.697-5.101 2.829-7.935.283-1.417.849-2.834 1.132-4.251.566-1.417.849-2.834 1.132-4.251.849-3.401 1.415-6.802 1.981-10.486 2.264.85 10.187 3.684 14.432 3.4 4.245-.283 9.338-1.7 11.885-5.384 2.264-3.685 1.415-8.786-2.547-10.77-5.659-2.834-15.564 2.551-19.525 6.235-.283.284-2.83 3.401-4.245 5.102.283-1.984.566-4.252.849-6.235.849-6.235 1.415-12.47 1.981-18.705.283-1.984.283-3.968.566-5.669.849.284 10.187 3.968 14.998 3.401 4.244-.283 9.338-1.7 11.885-5.384 2.264-3.685 1.415-8.786-2.547-10.77-5.66-2.834-15.564 2.551-19.526 6.235-.282.284-3.961 4.818-4.81 5.952.566-4.251.849-8.503 1.698-12.47.849-5.668 1.981-11.337 3.678-16.438.283 0 10.188 3.968 14.998 3.684 4.245-.283 9.339-1.7 11.885-5.384 2.264-3.685 1.415-8.786-2.546-10.77-5.66-2.834-15.564 2.551-19.526 6.235-.283.283-4.245 5.101-4.811 6.235 0-.283.283-.567.283-.85 1.698-5.668 3.962-10.77 6.509-15.588 1.415-2.834 2.83-5.384 4.528-7.935 1.697.85 9.904 4.818 14.149 5.101 4.244.284 9.621-.85 12.168-4.251 2.829-3.401 2.546-8.502-1.415-11.053-5.094-3.401-15.564.567-20.092 4.251-.283.284-2.547 2.268-3.961 3.968.566-1.134 1.414-2.267 1.98-3.401 2.547-3.968 5.377-7.368 7.641-10.486 1.415-1.7 2.547-3.117 3.679-4.534 2.263 0 11.036-.284 14.997-1.984 3.679-1.701 8.207-5.102 9.056-9.353.849-4.251-1.698-8.502-6.226-9.069-6.225-.567-13.583 7.936-15.847 13.037-.283.567-2.546 7.652-2.263 7.652-1.132 1.417-2.547 2.834-3.679 4.251-2.547 3.118-5.094 6.518-7.924 10.203-2.829 3.967-5.659 8.219-8.206 13.037-2.547 4.817-5.094 9.919-7.075 15.587v-7.085c-.848-5.668-5.376-15.871-11.602-17.005-4.527-.85-8.206 2.551-8.489 7.086-.283 4.534 2.83 8.785 5.943 11.619 3.395 3.118 13.3 6.235 13.866 6.519-1.698 5.384-3.113 11.053-4.245 17.004-.566 3.401-1.132 6.802-1.415 10.203v-3.118c-.849-5.668-5.377-15.871-11.602-17.004-4.528-.85-8.207 2.55-8.49 7.085-.283 4.535 2.83 8.786 5.943 11.62 3.113 2.834 11.319 5.668 13.583 6.235-.283 1.417-.283 2.55-.566 3.967-.849 6.235-1.415 12.47-2.264 18.705-.283 2.268-.566 4.251-1.132 6.519v-2.834c-.849-5.668-5.376-15.871-11.602-17.005-4.528-.85-8.206 2.551-8.489 7.085-.283 4.535 2.83 8.786 5.942 11.62 3.113 2.551 10.471 5.385 13.3 6.235-.566 2.267-.849 4.251-1.415 6.519-.283 1.417-.566 2.834-1.131 4.251-.566 1.417-.849 2.834-1.415 3.967-.849 2.551-1.981 5.385-2.83 7.652-.566 1.701-1.415 3.401-1.981 5.102.283-2.268.849-6.235.849-6.802 0-3.684-1.132-9.636-3.962-13.887v-1.701c-.566-4.251-4.81-7.368-9.055-6.235-5.943 1.701-9.904 12.187-10.187 17.855 0 .284.283 3.968.283 6.235-.283-1.417-.566-2.551-.849-3.968-.566-2.55-1.415-5.384-1.981-8.218-.283-1.417-.849-2.834-1.132-4.251-.283-1.418-.849-2.835-1.415-4.252-1.132-3.401-2.547-6.518-3.962-9.635 2.264-.567 10.471-2.551 13.866-5.102 3.396-2.551 6.792-6.802 6.792-11.053 0-4.251-3.396-7.935-7.924-7.652-6.225.567-11.602 10.486-12.734 16.154 0 .284-.566 4.252-.566 6.519-.849-1.984-1.698-3.968-2.829-5.952a474.302 474.302 0 00-8.773-16.721l-2.547-5.101c.849-.284 10.754-2.551 14.432-5.385 3.396-2.551 6.792-6.802 6.792-11.053 0-4.251-3.396-7.935-7.924-7.652-6.225.567-11.602 10.486-12.734 16.154 0 .284-.566 6.235-.566 7.652a212.116 212.116 0 01-5.659-11.336c-2.264-5.101-4.528-10.486-6.226-15.871.283 0 10.753-2.55 14.432-5.384 3.396-2.551 6.792-6.802 6.792-11.053 0-4.251-3.396-7.936-7.924-7.652-6.225.566-11.602 10.486-12.734 16.154 0 .567-.566 6.518-.566 7.652 0-.284-.283-.567-.283-.85-1.698-5.668-2.547-11.337-3.112-16.721-.283-3.118-.566-5.952-.566-9.069 1.98-.284 11.036-1.418 14.714-3.685 3.679-2.267 7.358-5.951 7.924-10.202.566-4.252-2.547-8.503-7.075-8.503-6.225 0-12.734 9.353-14.431 14.454 0 .284-.849 3.401-1.132 5.668v-3.967c0-4.818.283-9.07.566-12.754.283-2.267.283-4.251.566-5.951 1.697-1.134 9.055-6.235 11.319-9.92 2.264-3.684 3.961-8.785 2.263-12.753-1.697-3.968-6.225-6.235-10.187-4.251-5.659 2.834-7.074 14.17-6.225 19.555 0 .567 2.264 7.652 2.264 7.652-.283 1.7-.566 3.684-.566 5.668-.283 3.968-.849 8.219-.849 13.037 0 4.818 0 9.919.283 15.304.566 5.385 1.132 11.053 2.829 17.004v.284c-.849-1.417-3.961-5.668-4.244-5.952-3.679-4.251-13.3-10.202-18.96-7.652-4.245 1.701-5.376 6.802-3.396 10.486 3.679.851 8.773 2.551 12.734 3.401z"/><path d="M890.161 294.579s1.98-7.368 1.98-7.652c.849-5.668-1.131-16.721-6.508-19.272-3.962-1.983-8.489.284-10.187 4.535-1.415 4.251.283 9.352 2.547 12.753 3.112 3.685 12.168 9.636 12.168 9.636zm115.459-92.391c7.35 3.118 25.18 2.834 25.18 2.834.28 0-3.96-11.619-4.24-12.47-3.97-8.219-16.42-21.822-26.32-20.405-7.358.85-11.32 8.219-9.622 15.021 1.415 7.085 8.772 12.186 15.002 15.02z"/><path d="M1011.56 254.052c7.64 1.134 23.49-3.4 24.9-3.967 2.55 9.069 5.94 17.854 9.62 26.923 2.27 5.102 4.53 10.203 7.08 15.304-1.42-2.267-2.83-3.967-3.12-4.251-5.94-6.801-21.5-16.721-30.84-12.753-6.79 2.834-8.77 11.053-5.38 17.288 3.4 6.235 11.89 9.352 18.4 10.486 6.79 1.134 20.37-2.551 24.05-3.684.85 1.984 1.98 3.967 2.83 5.668 4.53 9.352 9.34 18.421 13.58 27.49 1.42 3.118 2.83 6.519 4.25 9.636-1.42-1.984-2.27-3.401-2.55-3.684-5.94-6.802-21.51-16.721-30.84-12.753-6.8 2.834-8.78 11.053-5.38 17.288 3.39 6.234 11.88 9.352 18.39 10.486 6.51.85 19.24-2.268 23.49-3.401 1.41 3.401 2.55 6.802 3.68 9.919.85 2.267 1.7 4.535 2.26 6.802.57 2.267 1.13 4.534 1.98 6.802 1.13 4.251 2.27 8.785 3.12 13.036.56 2.834 1.13 5.952 1.69 8.786-1.41-3.117-4.52-9.352-4.81-9.919-4.81-7.652-18.67-19.839-28.58-17.288-7.07 1.7-10.19 9.636-7.92 16.154 2.55 6.802 10.19 11.053 16.69 13.037 7.08 2.267 22.93.283 24.91 0 .85 4.818 1.69 9.352 2.54 13.603 1.7 8.786 2.83 17.005 3.68 23.807h6.51c-1.13-7.085-2.55-15.588-4.53-24.94-.85-4.818-1.98-9.919-3.11-15.304 1.13-.567 7.92-3.118 13.87-6.519 5.09 5.669 18.67 12.187 20.37 13.037-1.7 4.535-3.68 8.786-5.38 12.754-3.39 7.652-6.5 14.737-9.33 20.688h7.07c2.55-5.384 5.09-11.619 7.92-18.421 1.98-4.535 3.68-9.353 5.66-14.454 1.98.283 17.55 3.684 24.91 1.984 6.5-1.417 14.71-5.385 17.54-11.903 2.83-6.519.28-14.454-6.79-16.721-9.62-3.118-24.34 7.652-29.71 15.02-.29.567-3.12 5.385-5.1 8.786.85-1.984 1.42-3.968 2.27-6.235 1.41-4.251 2.83-8.502 4.52-13.037.57-2.267 1.42-4.534 1.98-6.802.85-2.267 1.14-4.818 1.7-7.085 1.42-5.385 2.27-11.053 3.4-17.004 3.68 1.417 16.69 5.951 23.77 5.384 6.79-.566 15.28-2.834 19.24-9.069 3.96-5.951 2.55-14.17-3.96-17.571-9.06-4.818-25.19 3.968-31.69 10.486-.29.284-4.53 5.668-6.8 8.502.57-3.4 1.14-6.801 1.42-10.486 1.13-10.202 2.26-20.405 3.11-30.608.28-3.117.57-6.235.85-9.352 1.42.567 16.7 6.235 24.34 5.668 6.79-.567 15.28-2.834 19.24-9.069 3.96-5.952 2.55-14.171-3.96-17.571-9.06-4.818-25.19 3.967-31.7 10.486-.56.567-6.5 7.935-7.92 9.919.85-6.802 1.42-13.887 2.55-20.405 1.41-9.353 3.39-18.422 5.94-26.924.57.283 16.7 6.235 24.62 5.668 6.79-.567 15.28-2.834 19.24-9.069 3.96-5.952 2.55-14.17-3.96-17.571-9.06-4.818-25.19 3.967-31.69 10.486-.57.567-6.8 8.502-7.93 9.919.29-.567.29-1.134.29-1.7 2.83-9.069 6.79-17.572 10.75-25.507 2.26-4.535 4.81-8.786 7.36-12.754 2.83 1.418 16.13 7.936 23.2 8.219 6.79.284 15.56-1.133 20.09-6.801 4.53-5.385 3.96-13.887-1.98-17.855-8.49-5.668-25.47 1.133-32.82 6.802-.29.283-3.97 3.967-6.51 6.518 1.13-1.7 2.26-3.684 3.39-5.385a191.758 191.758 0 0112.45-17.004c2.27-2.834 4.25-5.385 6.23-7.652 3.68 0 18.11-.567 24.34-3.401 6.22-2.834 13.3-8.219 14.71-15.304 1.42-6.802-2.83-14.171-10.19-14.737-10.18-1.134-22.07 12.753-25.75 21.255-.28.85-3.96 12.47-3.96 12.47h.28c-1.98 2.267-3.96 4.535-6.22 7.085-3.96 4.818-8.49 10.486-12.74 16.721a185.292 185.292 0 00-13.3 21.256c-4.24 7.935-8.2 16.438-11.31 25.507v.283c0-3.117 0-11.336-.29-11.903-1.13-9.069-8.77-25.79-18.67-27.774-7.36-1.417-13.3 4.251-13.87 11.336-.57 7.086 4.53 14.454 9.62 18.989 5.66 5.101 21.51 10.202 22.92 10.486-2.83 8.785-5.09 18.138-6.79 27.774-.85 5.385-1.7 11.053-2.55 16.437v-5.101c-1.13-9.069-8.77-25.79-18.67-27.774-7.36-1.417-13.3 4.251-13.87 11.336-.56 7.086 4.53 14.454 9.62 18.989 5.1 4.534 18.68 9.069 22.07 10.202-.28 2.268-.56 4.252-.84 6.519-1.14 10.203-2.27 20.405-3.97 30.325-.56 3.4-1.13 7.085-1.69 10.486v-4.535c-1.14-9.069-8.78-25.79-18.68-27.774-7.36-1.417-13.3 4.251-13.87 11.336-.56 7.086 4.53 14.454 9.62 18.989 4.82 4.251 17.27 8.785 21.51 9.919-.85 3.401-1.41 7.085-2.26 10.486-.57 2.267-1.13 4.535-1.98 6.802-.85 2.267-1.42 4.534-2.27 6.802-1.41 4.251-3.11 8.502-4.81 12.753-1.13 2.834-2.26 5.668-3.39 8.219.56-3.401 1.41-10.486 1.41-11.053 0-5.952-1.98-15.871-6.22-22.673 0-.85 0-1.7-.29-2.55-1.13-7.086-7.64-12.187-14.71-10.203-9.91 2.551-16.13 19.839-16.7 28.908 0 .566.29 6.518.57 10.202-.57-2.267-.85-4.251-1.42-6.518-1.13-4.251-2.26-8.786-3.39-13.32-.57-2.268-1.42-4.535-1.98-6.802-.57-2.267-1.7-4.535-2.27-6.802-1.98-5.385-4.24-10.769-6.51-15.871 3.68-.85 17.27-4.251 22.64-8.502 5.38-4.251 11.04-11.053 11.04-18.138 0-7.085-5.66-13.037-13.02-12.47-10.19 1.134-18.96 17.288-20.66 26.074 0 .566-.84 7.085-.84 10.769-1.42-3.117-2.83-6.235-4.53-9.636-4.53-9.069-9.34-18.138-14.15-27.207-1.42-2.834-2.83-5.668-4.25-8.502 1.42-.284 17.55-3.968 23.49-8.786 5.38-4.251 11.04-11.053 11.04-18.138 0-7.085-5.66-13.037-13.02-12.47-10.19 1.134-18.96 17.288-20.66 26.074 0 .566-.85 10.202-1.13 12.47-3.11-6.235-6.22-12.187-9.05-18.422-3.97-8.502-7.36-17.288-9.91-25.79.57-.284 17.55-3.968 23.77-8.786 5.38-4.251 11.04-11.053 11.04-18.138 0-7.085-5.66-13.037-13.02-12.47-10.19 1.134-18.96 17.288-20.66 26.074-.28.567-1.13 10.769-1.13 12.753-.28-.567-.28-1.134-.56-1.417-2.83-9.069-4.25-18.422-5.1-27.207-.56-5.102-.85-9.919-.85-14.737 3.12-.284 17.83-2.268 24.06-5.952 5.94-3.401 12.16-9.636 13.01-16.721.85-7.085-4.24-13.604-11.6-13.604-10.19 0-20.66 15.021-23.49 23.807-.28.566-1.13 5.384-1.98 9.069v-6.519c0-7.652.57-14.737.85-20.972.28-3.684.57-6.802 1.13-9.636 2.83-1.984 14.72-10.486 18.4-16.437 3.39-5.952 6.51-14.171 3.68-20.973-2.55-6.518-10.19-10.202-16.7-6.801-9.05 4.818-11.32 22.956-9.9 32.025 0 .85 3.67 12.753 3.67 12.47h.29c-.29 2.834-.85 5.951-1.13 9.352-.57 6.235-1.14 13.32-1.42 20.972-.28 7.652-.28 16.155.57 24.94.85 8.786 1.98 18.138 4.52 27.491v.283c-1.69-2.55-6.22-9.352-6.79-9.919-5.94-6.802-21.5-16.721-30.841-12.753-6.792 2.834-8.773 11.053-5.377 17.287 3.679 6.802 12.168 9.92 18.678 11.053z"/><path d="M1186.44 206.156c.28 0 3.11-11.903 3.4-12.753 1.13-9.069-1.7-27.207-10.76-31.742-6.51-3.117-13.86.567-16.41 7.369-2.55 6.802.57 15.02 4.24 20.689 4.25 6.801 19.53 16.437 19.53 16.437zm465.78-3.968c7.36 3.118 25.19 2.834 25.19 2.834.28 0-3.96-11.619-4.25-12.47-3.96-8.219-16.41-21.822-26.31-20.405-7.36.85-11.32 8.219-9.62 15.021 1.69 7.085 8.77 12.186 14.99 15.02z"/><path d="M1658.45 254.052c7.64 1.134 23.49-3.4 24.9-3.967 2.55 9.069 5.94 17.854 9.62 26.923 2.27 5.102 4.53 10.203 7.08 15.304-1.42-2.267-2.83-3.967-3.12-4.251-5.94-6.801-21.5-16.721-30.84-12.753-6.79 2.834-8.77 11.053-5.38 17.288 3.4 6.235 11.89 9.352 18.4 10.486 6.79 1.134 20.37-2.551 24.05-3.684.85 1.984 1.98 3.967 2.83 5.668 4.53 9.352 9.34 18.421 13.58 27.49 1.42 3.118 2.83 6.519 4.25 9.636-1.42-1.984-2.27-3.401-2.55-3.684-5.94-6.802-21.51-16.721-30.84-12.753-6.8 2.834-8.78 11.053-5.38 17.288 3.39 6.234 11.88 9.352 18.39 10.486 6.51.85 19.24-2.268 23.49-3.401 1.41 3.401 2.55 6.802 3.68 9.919.85 2.267 1.7 4.535 2.26 6.802.57 2.267 1.13 4.534 1.98 6.802 1.13 4.251 2.27 8.785 3.12 13.036.56 2.834 1.13 5.952 1.69 8.786-1.41-3.117-4.52-9.352-4.81-9.919-4.81-7.652-18.67-19.839-28.58-17.288-7.07 1.7-10.19 9.636-7.92 16.154 2.55 6.802 10.19 11.053 16.69 13.037 7.08 2.267 22.93.283 24.91 0 .85 4.818 1.69 9.352 2.54 13.603 1.7 8.786 2.83 17.005 3.68 23.807h6.51c-1.13-7.085-2.55-15.588-4.53-24.94-.85-4.818-1.98-9.919-3.11-15.304 1.13-.567 7.92-3.118 13.87-6.519 5.09 5.669 18.67 12.187 20.37 13.037-1.7 4.535-3.68 8.786-5.38 12.754-3.39 7.652-6.5 14.737-9.33 20.688h7.07c2.55-5.384 5.09-11.619 7.92-18.421 1.98-4.535 3.68-9.353 5.66-14.454 1.98.283 17.55 3.684 24.91 1.984 6.5-1.417 14.71-5.385 17.54-11.903 2.83-6.519.28-14.454-6.79-16.721-9.62-3.118-24.34 7.652-29.71 15.02-.29.567-3.12 5.385-5.1 8.786.85-1.984 1.42-3.968 2.27-6.235 1.41-4.251 2.83-8.502 4.52-13.037.57-2.267 1.42-4.534 1.98-6.802.85-2.267 1.14-4.818 1.7-7.085 1.42-5.385 2.27-11.053 3.4-17.004 3.68 1.417 16.69 5.951 23.77 5.384 6.79-.566 15.28-2.834 19.24-9.069 3.96-5.951 2.55-14.17-3.96-17.571-9.06-4.818-25.19 3.968-31.69 10.486-.29.284-4.53 5.668-6.8 8.502.57-3.4 1.14-6.801 1.42-10.486 1.13-10.202 2.26-20.405 3.11-30.608.28-3.117.57-6.235.85-9.352 1.42.567 16.7 6.235 24.34 5.668 6.79-.567 15.28-2.834 19.24-9.069 3.96-5.952 2.55-14.171-3.96-17.571-9.06-4.818-25.19 3.967-31.7 10.486-.56.567-6.5 7.935-7.92 9.919.85-6.802 1.42-13.887 2.55-20.405 1.41-9.353 3.39-18.422 5.94-26.924.57.283 16.7 6.235 24.62 5.668 6.79-.567 15.28-2.834 19.24-9.069 3.96-5.952 2.55-14.17-3.96-17.571-9.06-4.818-25.18 3.967-31.69 10.486-.57.567-6.79 8.502-7.93 9.919.29-.567.29-1.134.29-1.7 2.83-9.069 6.79-17.572 10.75-25.507 2.26-4.535 4.81-8.786 7.36-12.754 2.83 1.418 16.13 7.936 23.2 8.219 6.79.284 15.56-1.133 20.09-6.801 4.53-5.385 3.96-13.887-1.98-17.855-8.49-5.668-25.47 1.133-32.82 6.802-.29.283-3.97 3.967-6.51 6.518 1.13-1.7 2.26-3.684 3.39-5.385a191.758 191.758 0 0112.45-17.004c2.27-2.834 4.25-5.385 6.23-7.652 3.68 0 18.11-.567 24.34-3.401 6.22-2.834 13.3-8.219 14.71-15.304 1.42-6.802-2.83-14.171-10.19-14.737-10.18-1.134-22.07 12.753-25.75 21.255-.28.85-3.96 12.47-3.96 12.47h.28c-1.98 2.267-3.96 4.535-6.22 7.085-3.96 4.818-8.49 10.486-12.74 16.721a185.292 185.292 0 00-13.3 21.256c-4.24 7.935-8.2 16.438-11.31 25.507v.283c0-3.117 0-11.336-.29-11.903-1.13-9.069-8.77-25.79-18.67-27.774-7.36-1.417-13.3 4.251-13.87 11.336-.57 7.086 4.53 14.454 9.62 18.989 5.66 5.101 21.51 10.202 22.92 10.486-2.83 8.785-5.09 18.138-6.79 27.774-.85 5.385-1.7 11.053-2.55 16.437v-5.101c-1.13-9.069-8.77-25.79-18.67-27.774-7.36-1.417-13.3 4.251-13.87 11.336-.56 7.086 4.53 14.454 9.62 18.989 5.1 4.534 18.68 9.069 22.08 10.202-.29 2.268-.57 4.252-.85 6.519-1.14 10.203-2.27 20.405-3.97 30.325-.56 3.4-1.13 7.085-1.69 10.486v-4.535c-1.14-9.069-8.78-25.79-18.68-27.774-7.36-1.417-13.3 4.251-13.87 11.336-.56 7.086 4.53 14.454 9.63 18.989 4.81 4.251 17.26 8.785 21.5 9.919-.85 3.401-1.41 7.085-2.26 10.486-.57 2.267-1.13 4.535-1.98 6.802-.85 2.267-1.42 4.534-2.27 6.802-1.41 4.251-3.11 8.502-4.81 12.753-1.13 2.834-2.26 5.668-3.39 8.219.56-3.401 1.41-10.486 1.41-11.053 0-5.952-1.98-15.871-6.22-22.673 0-.85 0-1.7-.29-2.55-1.13-7.086-7.64-12.187-14.71-10.203-9.91 2.551-16.13 19.839-16.7 28.908 0 .566.29 6.518.57 10.202-.57-2.267-.85-4.251-1.42-6.518-1.13-4.251-2.26-8.786-3.39-13.32-.57-2.268-1.42-4.535-1.98-6.802-.57-2.267-1.7-4.535-2.27-6.802-1.98-5.385-4.24-10.769-6.51-15.871 3.68-.85 17.27-4.251 22.64-8.502 5.38-4.251 11.04-11.053 11.04-18.138 0-7.085-5.66-13.037-13.02-12.47-10.19 1.134-18.96 17.288-20.66 26.074 0 .566-.84 7.085-.84 10.769-1.42-3.117-2.83-6.235-4.53-9.636-4.53-9.069-9.34-18.138-14.15-27.207-1.42-2.834-2.83-5.668-4.25-8.502 1.42-.284 17.55-3.968 23.49-8.786 5.38-4.251 11.04-11.053 11.04-18.138 0-7.085-5.66-13.037-13.02-12.47-10.19 1.134-18.96 17.288-20.66 26.074 0 .566-.85 10.202-1.13 12.47-3.11-6.235-6.22-12.187-9.05-18.422-3.97-8.502-7.36-17.288-9.91-25.79.57-.284 17.55-3.968 23.77-8.786 5.38-4.251 11.04-11.053 11.04-18.138 0-7.085-5.66-13.037-13.02-12.47-10.19 1.134-18.96 17.288-20.66 26.074-.28.567-1.13 10.769-1.13 12.753-.28-.567-.28-1.134-.56-1.417-2.83-9.069-4.25-18.422-5.1-27.207-.56-5.102-.85-9.919-.85-14.737 3.12-.284 17.83-2.268 24.06-5.952 5.94-3.401 12.16-9.636 13.01-16.721.85-7.085-4.24-13.604-11.6-13.604-10.19 0-20.66 15.021-23.49 23.807-.28.566-1.13 5.384-1.98 9.069v-6.519c0-7.652.57-14.737.85-20.972.29-3.684.57-6.802 1.13-9.636 2.83-1.984 14.72-10.486 18.4-16.437 3.39-5.952 6.51-14.171 3.68-20.973-2.55-6.518-10.19-10.202-16.7-6.801-9.05 4.818-11.32 22.956-9.9 32.025 0 .85 3.68 12.753 3.68 12.47h.28c-.28 2.834-.85 5.951-1.13 9.352-.57 6.235-1.14 13.32-1.42 20.972-.28 7.652-.28 16.155.57 24.94.85 8.786 1.98 18.138 4.52 27.491v.283c-1.69-2.55-6.22-9.352-6.79-9.919-5.94-6.802-21.5-16.721-30.84-12.753-6.79 2.834-8.77 11.053-5.38 17.287 3.68 6.802 11.89 9.92 18.68 11.053z"/><path d="M1833.05 206.156c.28 0 3.11-11.903 3.39-12.753 1.13-9.069-1.7-27.207-10.75-31.742-6.51-3.117-13.87.567-16.41 7.369-2.55 6.802.56 15.02 4.24 20.689 4.53 6.801 19.53 16.437 19.53 16.437zm-531.15-3.968c7.35 3.118 25.18 2.834 25.18 2.834.28 0-3.96-11.619-4.24-12.47-3.97-8.219-16.42-21.822-26.32-20.405-7.36.85-11.32 8.219-9.62 15.021 1.7 7.085 8.77 12.186 15 15.02z"/><path d="M1308.12 254.052c7.64 1.134 23.49-3.4 24.9-3.967 2.55 9.069 5.95 17.854 9.62 26.923 2.27 5.102 4.53 10.203 7.08 15.304-1.42-2.267-2.83-3.967-3.11-4.251-5.95-6.801-21.51-16.721-30.85-12.753-6.79 2.834-8.77 11.053-5.38 17.288 3.4 6.235 11.89 9.352 18.4 10.486 6.79 1.134 20.37-2.551 24.05-3.684.85 1.984 1.98 3.967 2.83 5.668 4.53 9.352 9.34 18.421 13.58 27.49 1.42 3.118 2.83 6.519 4.25 9.636-1.42-1.984-2.27-3.401-2.55-3.684-5.94-6.802-21.5-16.721-30.84-12.753-6.79 2.834-8.78 11.053-5.38 17.288 3.4 6.234 11.89 9.352 18.39 10.486 6.51.85 19.25-2.268 23.49-3.401 1.42 3.401 2.55 6.802 3.68 9.919.85 2.267 1.7 4.535 2.26 6.802.57 2.267 1.14 4.534 1.99 6.802 1.13 4.251 2.26 8.785 3.11 13.036.56 2.834 1.13 5.952 1.7 8.786-1.42-3.117-4.53-9.352-4.81-9.919-4.82-7.652-18.68-19.839-28.59-17.288-7.07 1.7-10.18 9.636-7.92 16.154 2.55 6.802 10.19 11.053 16.7 13.037 7.07 2.267 22.92.283 24.9 0 .85 4.818 1.7 9.352 2.55 13.603 1.69 8.786 2.83 17.005 3.67 23.807h6.51c-1.13-7.085-2.54-15.588-4.52-24.94-.85-4.818-1.99-9.919-3.12-15.304 1.13-.567 7.93-3.118 13.87-6.519 5.09 5.669 18.67 12.187 20.37 13.037-1.7 4.535-3.68 8.786-5.37 12.754-3.4 7.652-6.51 14.737-9.34 20.688h7.07c2.55-5.384 5.1-11.619 7.93-18.421 1.98-4.535 3.67-9.353 5.66-14.454 1.98.283 17.54 3.684 24.9 1.984 6.51-1.417 14.71-5.385 17.54-11.903 2.83-6.519.29-14.454-6.79-16.721-9.62-3.118-24.34 7.652-29.71 15.02-.29.567-3.11 5.385-5.1 8.786.85-1.984 1.42-3.968 2.27-6.235 1.41-4.251 2.83-8.502 4.53-13.037.56-2.267 1.41-4.534 1.98-6.802.85-2.267 1.13-4.818 1.69-7.085 1.42-5.385 2.27-11.053 3.4-17.004 3.68 1.417 16.7 5.951 23.77 5.384 6.79-.566 15.28-2.834 19.24-9.069 3.96-5.951 2.55-14.17-3.96-17.571-9.05-4.818-25.18 3.968-31.69 10.486-.29.284-4.53 5.668-6.79 8.502.56-3.4 1.13-6.801 1.41-10.486 1.13-10.202 2.26-20.405 3.11-30.608.29-3.117.57-6.235.85-9.352 1.42.567 16.7 6.235 24.34 5.668 6.79-.567 15.28-2.834 19.24-9.069 3.96-5.952 2.55-14.171-3.96-17.571-9.06-4.818-25.19 3.967-31.69 10.486-.57.567-6.51 7.935-7.93 9.919.85-6.802 1.42-13.887 2.55-20.405 1.41-9.353 3.4-18.422 5.94-26.924.57.283 16.7 6.235 24.62 5.668 6.79-.567 15.28-2.834 19.24-9.069 3.97-5.952 2.55-14.17-3.96-17.571-9.05-4.818-25.18 3.967-31.69 10.486-.57.567-6.79 8.502-7.92 9.919.28-.567.28-1.134.28-1.7 2.83-9.069 6.79-17.572 10.75-25.507 2.27-4.535 4.81-8.786 7.36-12.754 2.83 1.418 16.13 7.936 23.2 8.219 6.79.284 15.57-1.133 20.09-6.801 4.53-5.385 3.97-13.887-1.98-17.855-8.49-5.668-25.46 1.133-32.82 6.802-.28.283-3.96 3.967-6.51 6.518 1.13-1.7 2.26-3.684 3.4-5.385a187.838 187.838 0 0112.45-17.004c2.26-2.834 4.24-5.385 6.22-7.652 3.68 0 18.11-.567 24.34-3.401 6.22-2.834 13.3-8.219 14.71-15.304 1.42-6.802-2.83-14.171-10.18-14.737-10.19-1.134-22.08 12.753-25.76 21.255-.28.85-3.96 12.47-3.96 12.47h.29a1267.02 1267.02 0 01-6.23 7.085c-3.96 4.818-8.49 10.486-12.73 16.721a182.565 182.565 0 00-13.3 21.256c-4.25 7.935-8.21 16.438-11.32 25.507v.283c0-3.117 0-11.336-.29-11.903-1.13-9.069-8.77-25.79-18.67-27.774-7.36-1.417-13.3 4.251-13.87 11.336-.56 7.086 4.53 14.454 9.62 18.989 5.66 5.101 21.51 10.202 22.92 10.486-2.83 8.785-5.09 18.138-6.79 27.774-.85 5.385-1.7 11.053-2.54 16.437v-5.101c-1.14-9.069-8.78-25.79-18.68-27.774-7.36-1.417-13.3 4.251-13.87 11.336-.56 7.086 4.53 14.454 9.62 18.989 5.1 4.534 18.68 9.069 22.08 10.202-.29 2.268-.57 4.252-.85 6.519-1.13 10.203-2.27 20.405-3.96 30.325-.57 3.4-1.14 7.085-1.7 10.486v-4.535c-1.13-9.069-8.77-25.79-18.68-27.774-7.36-1.417-13.3 4.251-13.86 11.336-.57 7.086 4.52 14.454 9.62 18.989 4.81 4.251 17.26 8.785 21.5 9.919-.85 3.401-1.41 7.085-2.26 10.486-.57 2.267-1.13 4.535-1.98 6.802-.85 2.267-1.42 4.534-2.26 6.802-1.42 4.251-3.12 8.502-4.82 12.753-1.13 2.834-2.26 5.668-3.39 8.219.56-3.401 1.41-10.486 1.41-11.053 0-5.952-1.98-15.871-6.22-22.673 0-.85 0-1.7-.28-2.55-1.14-7.086-7.65-12.187-14.72-10.203-9.9 2.551-16.13 19.839-16.7 28.908 0 .566.29 6.518.57 10.202-.57-2.267-.85-4.251-1.41-6.518-1.14-4.251-2.27-8.786-3.4-13.32-.57-2.268-1.42-4.535-1.98-6.802-.57-2.267-1.7-4.535-2.26-6.802-1.99-5.385-4.25-10.769-6.51-15.871 3.68-.85 17.26-4.251 22.63-8.502 5.38-4.251 11.04-11.053 11.04-18.138 0-7.085-5.66-13.037-13.02-12.47-10.18 1.134-18.96 17.288-20.65 26.074 0 .566-.85 7.085-.85 10.769-1.42-3.117-2.83-6.235-4.53-9.636-4.53-9.069-9.34-18.138-14.15-27.207-1.41-2.834-2.83-5.668-4.24-8.502 1.41-.284 17.54-3.968 23.48-8.786 5.38-4.251 11.04-11.053 11.04-18.138 0-7.085-5.66-13.037-13.02-12.47-10.18 1.134-18.96 17.288-20.65 26.074 0 .566-.85 10.202-1.14 12.47-3.11-6.235-6.22-12.187-9.05-18.422-3.96-8.502-7.36-17.288-9.91-25.79.57-.284 17.55-3.968 23.77-8.786 5.38-4.251 11.04-11.053 11.04-18.138 0-7.085-5.66-13.037-13.02-12.47-10.18 1.134-18.96 17.288-20.65 26.074-.29.567-1.14 10.769-1.14 12.753-.28-.567-.28-1.134-.56-1.417-2.83-9.069-4.25-18.422-5.1-27.207-.56-5.102-.84-9.919-.84-14.737 3.11-.284 17.82-2.268 24.05-5.952 5.94-3.401 12.17-9.636 13.02-16.721.84-7.085-4.25-13.604-11.61-13.604-10.18 0-20.65 15.021-23.48 23.807-.29.566-1.14 5.384-1.98 9.069v-6.519c0-7.652.56-14.737.84-20.972.29-3.684.57-6.802 1.14-9.636 2.83-1.984 14.71-10.486 18.39-16.437 3.4-5.952 6.51-14.171 3.68-20.973-2.55-6.518-10.19-10.202-16.7-6.801-9.05 4.818-11.32 22.956-9.9 32.025 0 .85 3.68 12.753 3.68 12.47h.28c-.28 2.834-.85 5.951-1.13 9.352-.57 6.235-1.13 13.32-1.42 20.972-.28 7.652-.28 16.155.57 24.94.85 8.786 1.98 18.138 4.53 27.491v.283c-1.7-2.55-6.23-9.352-6.79-9.919-5.95-6.802-21.51-16.721-30.85-12.753-6.79 2.834-8.77 11.053-5.38 17.287 3.68 6.802 11.89 9.92 18.68 11.053z"/><path d="M1483 206.156c.28 0 3.11-11.903 3.4-12.753 1.13-9.069-1.7-27.207-10.76-31.742-6.5-3.117-13.86.567-16.41 7.369-2.55 6.802.57 15.02 4.25 20.689 4.24 6.801 19.24 16.437 19.52 16.437zm6.51 83.888c4.53 1.984 15.56 1.701 15.56 1.701s-2.26-7.369-2.54-7.652c-2.55-5.101-10.19-13.604-16.42-12.753-4.52.566-7.07 5.101-5.94 9.352 1.13 4.534 5.38 7.652 9.34 9.352z"/><path d="M1493.47 322.353c4.81.567 14.72-2.267 15.28-2.55 1.7 5.668 3.68 11.053 5.95 16.721 1.41 3.117 2.83 6.235 4.24 9.352-.85-1.417-1.7-2.55-1.98-2.55-3.68-4.251-13.3-10.486-19.24-7.936-4.25 1.701-5.38 6.802-3.4 10.77 2.26 3.967 7.36 5.951 11.6 6.518 4.25.567 12.74-1.7 15-2.267.57 1.134 1.13 2.267 1.7 3.684l8.49 17.005c.85 1.984 1.7 3.967 2.54 5.951-.84-1.133-1.41-2.267-1.69-2.267-3.68-4.251-13.3-10.486-19.25-7.935-4.24 1.7-5.37 6.801-3.39 10.769 2.26 3.968 7.36 5.952 11.6 6.518 3.96.567 11.89-1.417 14.72-2.267.84 1.984 1.69 4.251 2.26 6.235.57 1.417.85 2.834 1.41 4.251.29 1.417.85 2.834 1.14 4.251.56 2.834 1.41 5.385 1.98 8.219.28 1.984.85 3.685 1.13 5.385-.85-1.984-2.83-5.952-3.11-6.235-3.12-4.818-11.61-12.187-17.83-10.769-4.53 1.133-6.51 5.951-4.81 9.919 1.41 4.251 6.22 6.802 10.47 8.219 4.53 1.417 14.15 0 15.56 0 .57 2.834 1.13 5.951 1.7 8.502.85 5.385 1.7 10.486 2.26 14.737h4.25c-.57-4.534-1.7-9.636-2.83-15.587-.57-3.118-1.13-6.235-1.98-9.353.85-.283 4.81-1.984 8.77-3.968 3.11 3.401 11.6 7.652 12.73 8.219-1.13 2.834-2.26 5.385-3.39 7.936-1.98 4.818-3.96 9.069-5.94 12.753h4.52c1.42-3.401 3.12-7.085 4.81-11.336 1.14-2.834 2.27-5.952 3.4-9.069 1.13.283 11.04 2.267 15.56 1.133 4.25-.85 9.06-3.401 11.04-7.368 1.7-3.968.28-8.786-4.24-10.486-5.95-1.984-15.29 4.818-18.4 9.352-.28.283-1.98 3.401-3.11 5.385.56-1.417.85-2.551 1.41-3.968.85-2.551 1.7-5.385 2.83-8.219.29-1.417.85-2.834 1.14-4.251.56-1.417.84-2.834 1.13-4.251.85-3.401 1.41-7.085 1.98-10.486 2.26.85 10.47 3.684 14.71 3.401 4.25-.284 9.62-1.984 11.89-5.668 2.26-3.685 1.41-8.786-2.55-10.77-5.66-2.834-15.85 2.551-19.81 6.519-.28.283-2.83 3.4-4.24 5.101.28-2.267.56-4.251.85-6.518.85-6.235 1.41-12.754 1.98-18.989.28-1.984.28-3.968.56-5.951.85.283 10.47 3.967 15.28 3.684 4.25-.283 9.63-1.984 11.89-5.668 2.26-3.685 1.41-8.786-2.55-10.77-5.66-2.834-15.84 2.551-19.81 6.519-.28.283-3.96 4.818-4.81 6.235.57-4.252.85-8.503 1.7-12.754.85-5.668 1.98-11.336 3.68-16.721.28.284 10.47 3.968 15.28 3.684 4.25-.283 9.62-1.983 11.89-5.668 2.26-3.684 1.41-8.785-2.55-10.769-5.66-2.834-15.85 2.55-19.81 6.518-.28.284-4.24 5.385-4.81 6.235 0-.283.28-.567.28-.85 1.7-5.668 4.25-11.053 6.51-15.871 1.42-2.834 3.11-5.385 4.53-7.935 1.7.85 10.19 4.818 14.43 5.101 4.25.283 9.62-.85 12.45-4.251 2.83-3.401 2.55-8.502-1.41-11.053-5.38-3.401-15.85.567-20.38 4.251-.28.284-2.54 2.551-3.96 3.968.85-1.134 1.42-2.267 2.27-3.401 2.54-3.968 5.37-7.369 7.64-10.486 1.41-1.701 2.54-3.401 3.96-4.818 2.26 0 11.32-.284 15-2.267 3.96-1.701 8.2-5.102 9.05-9.636.85-4.251-1.7-8.786-6.22-9.353-6.23-.567-13.87 7.936-16.13 13.037-.29.567-2.55 7.652-2.27 7.652-1.13 1.417-2.55 2.834-3.68 4.535-2.54 3.117-5.09 6.518-7.92 10.486-2.83 3.967-5.66 8.219-8.21 13.036-2.54 4.818-5.09 10.203-7.07 15.871V309.6c-.85-5.668-5.38-16.154-11.6-17.288-4.53-.85-8.21 2.551-8.78 7.085-.28 4.535 2.83 8.786 5.95 11.62 3.68 3.118 13.3 6.235 14.15 6.519-1.7 5.384-3.12 11.336-4.25 17.287-.56 3.401-1.13 6.802-1.7 10.203v-3.117c-.85-5.669-5.37-16.155-11.6-17.288-4.53-.85-8.21 2.55-8.77 7.085-.28 4.534 2.83 8.786 5.94 11.62 3.11 2.834 11.6 5.668 13.87 6.235-.29 1.417-.29 2.55-.57 3.967-.85 6.235-1.41 12.754-2.26 18.989-.29 2.267-.85 4.251-1.13 6.518v-2.834c-.85-5.668-5.38-16.154-11.61-17.288-4.52-.85-8.2 2.551-8.77 7.085-.28 4.535 2.83 8.786 5.94 11.62 3.12 2.834 10.76 5.385 13.3 6.235-.56 2.267-.85 4.251-1.41 6.518-.28 1.417-.57 2.835-1.13 4.252-.57 1.417-.85 2.834-1.42 4.251-.85 2.55-1.98 5.384-2.83 7.935-.56 1.701-1.41 3.401-1.98 5.101.28-2.267.85-6.518.85-6.801 0-3.685-1.13-9.92-3.96-14.171v-1.7c-.57-4.251-4.81-7.652-9.06-6.235-6.22 1.7-9.9 12.47-10.18 18.138 0 .283.28 3.968.28 6.235-.28-1.417-.57-2.551-.85-3.968-.57-2.834-1.41-5.385-2.26-8.219-.29-1.417-.85-2.834-1.14-4.251-.28-1.417-.84-2.834-1.41-4.251-1.13-3.401-2.55-6.518-3.96-9.919 2.26-.567 10.75-2.834 14.15-5.385 3.39-2.551 6.79-6.802 6.79-11.336 0-4.251-3.68-8.219-8.21-7.652-6.22.567-11.88 10.769-13.02 16.154 0 .283-.56 4.535-.56 6.518-.85-1.983-1.7-3.967-2.83-5.951-2.83-5.668-5.94-11.337-8.77-17.005-.85-1.7-1.7-3.401-2.83-5.101.85-.283 10.75-2.551 14.71-5.385 3.4-2.55 6.79-6.802 6.79-11.336 0-4.251-3.68-8.219-8.2-7.652-6.23.567-11.89 10.769-13.02 16.154 0 .284-.57 6.235-.57 7.652-1.98-3.684-3.96-7.652-5.66-11.62-2.54-5.384-4.52-10.769-6.22-15.87.28 0 10.75-2.551 14.71-5.385 3.4-2.551 6.8-6.802 6.8-11.336 0-4.252-3.68-8.219-8.21-7.653-6.23.567-11.89 10.77-13.02 16.155 0 .567-.56 6.802-.56 7.935 0-.283-.29-.567-.29-.85-1.7-5.668-2.54-11.336-3.11-17.005-.28-3.117-.57-6.235-.57-9.069 1.98-.283 11.04-1.417 15-3.684 3.68-2.267 7.64-5.951 7.93-10.486.56-4.251-2.55-8.502-7.08-8.502-6.22 0-12.73 9.352-14.71 14.737 0 .283-.85 3.401-1.14 5.668v-3.968c0-4.818.29-9.069.57-13.036.28-2.268.28-4.251.57-5.952 1.69-1.134 9.05-6.518 11.32-10.203 2.26-3.684 3.96-8.785 2.26-13.036-1.7-3.968-6.23-6.235-10.19-4.251-5.66 2.834-7.07 14.17-6.22 19.838 0 .567 2.26 7.935 2.26 7.935a260.68 260.68 0 00-.85 5.669c-.28 3.967-.85 8.218-.85 13.036s0 9.92.29 15.588c.56 5.385 1.41 11.336 2.82 17.288v.283c-1.13-1.7-3.96-5.951-4.24-6.235-3.68-4.251-13.3-10.486-19.24-7.935-4.25 1.7-5.38 6.802-3.4 10.769 3.96 4.535 9.06 6.519 13.3 7.085z"/><path d="M1601.85 292.596s1.98-7.369 1.98-7.936c.85-5.668-1.13-17.004-6.79-19.555-4.24-1.984-8.77.284-10.19 4.535-1.41 4.251.29 9.352 2.83 13.036 2.83 3.968 12.17 9.92 12.17 9.92zM584.543 202.188c7.358 3.118 25.185 2.834 25.185 2.834.283 0-3.961-11.619-4.244-12.47-3.962-8.219-16.413-21.822-26.317-20.405-7.358.85-11.32 8.219-9.622 15.021 1.415 7.085 8.773 12.186 14.998 15.02z"/><path d="M590.769 254.052c7.64 1.134 23.487-3.4 24.902-3.967 2.547 9.069 5.942 17.854 9.621 26.923 2.264 5.102 4.528 10.203 7.075 15.304-1.415-2.267-2.83-3.967-3.113-4.251-5.943-6.801-21.507-16.721-30.845-12.753-6.791 2.834-8.772 11.053-5.376 17.288 3.395 6.235 11.885 9.352 18.393 10.486 6.792 1.134 20.375-2.551 24.053-3.684.849 1.984 1.981 3.967 2.83 5.668 4.528 9.352 9.339 18.421 13.583 27.49 1.415 3.118 2.83 6.519 4.245 9.636-1.415-1.984-2.264-3.401-2.547-3.684-5.943-6.802-21.506-16.721-30.845-12.753-6.791 2.834-8.772 11.053-5.376 17.288 3.396 6.234 11.885 9.352 18.393 10.486 6.509.85 19.243-2.268 23.488-3.401 1.415 3.401 2.546 6.802 3.678 9.919.849 2.267 1.698 4.535 2.264 6.802.566 2.267 1.132 4.534 1.981 6.802 1.132 4.251 2.264 8.785 3.113 13.036.566 2.834 1.132 5.952 1.698 8.786-1.415-3.117-4.528-9.352-4.811-9.919-4.811-7.652-18.677-19.839-28.581-17.288-7.074 1.7-10.187 9.636-7.923 16.154 2.547 6.802 10.187 11.053 16.696 13.037 7.074 2.267 22.921.283 24.902 0a617.305 617.305 0 002.546 13.603c1.698 8.786 2.83 17.005 3.679 23.807h6.509c-1.132-7.085-2.547-15.588-4.528-24.94-.849-4.818-1.981-9.919-3.113-15.304 1.132-.567 7.924-3.118 13.866-6.519 5.094 5.669 18.677 12.187 20.375 13.037-1.698 4.535-3.679 8.786-5.377 12.754-3.396 7.652-6.508 14.737-9.338 20.688h7.074c2.547-5.384 5.094-11.619 7.924-18.421 1.981-4.535 3.678-9.353 5.659-14.454 1.981.283 17.545 3.684 24.902 1.984 6.509-1.417 14.715-5.385 17.545-11.903 2.83-6.519.283-14.454-6.791-16.721-9.622-3.118-24.336 7.652-29.713 15.02-.283.567-3.113 5.385-5.094 8.786.849-1.984 1.415-3.968 2.264-6.235 1.415-4.251 2.83-8.502 4.528-13.037.566-2.267 1.415-4.534 1.981-6.802.849-2.267 1.132-4.818 1.698-7.085 1.414-5.385 2.263-11.053 3.395-17.004 3.679 1.417 16.696 5.951 23.771 5.384 6.791-.566 15.28-2.834 19.242-9.069 3.962-5.951 2.547-14.17-3.962-17.571-9.055-4.818-25.185 3.968-31.693 10.486-.283.284-4.528 5.668-6.792 8.502.566-3.4 1.132-6.801 1.415-10.486 1.132-10.202 2.264-20.405 3.113-30.608l.849-9.352c1.415.567 16.696 6.235 24.336 5.668 6.791-.567 15.281-2.834 19.243-9.069 3.961-5.952 2.546-14.171-3.962-17.571-9.055-4.818-25.185 3.967-31.694 10.486-.566.567-6.508 7.935-7.923 9.919.849-6.802 1.415-13.887 2.547-20.405 1.415-9.353 3.395-18.422 5.942-26.924.566.283 16.696 6.235 24.619 5.668 6.792-.567 15.281-2.834 19.243-9.069 3.962-5.952 2.547-14.17-3.962-17.571-9.055-4.818-25.185 3.967-31.693 10.486-.566.567-6.792 8.502-7.924 9.919.283-.567.283-1.134.283-1.7 2.83-9.069 6.792-17.572 10.753-25.507 2.264-4.535 4.811-8.786 7.358-12.754 2.83 1.418 16.13 7.936 23.204 8.219 6.792.284 15.564-1.133 20.092-6.801 4.527-5.385 3.961-13.887-1.981-17.855-8.49-5.668-25.468 1.133-32.826 6.802l-6.508 6.518c1.132-1.7 2.263-3.684 3.395-5.385a190.36 190.36 0 0112.452-17.004c2.263-2.834 4.244-5.385 6.225-7.652 3.679 0 18.111-.567 24.336-3.401 6.226-2.834 13.3-8.219 14.715-15.304 1.415-6.802-2.83-14.171-10.187-14.737-10.187-1.134-22.072 12.753-25.751 21.255-.283.85-3.962 12.47-3.962 12.47h.283c-1.981 2.267-3.962 4.535-6.225 7.085-3.962 4.818-8.49 10.486-12.735 16.721a183.646 183.646 0 00-13.3 21.256c-4.244 7.935-8.206 16.438-11.319 25.507v.283c0-3.117 0-11.336-.283-11.903-1.132-9.069-8.772-25.79-18.676-27.774-7.358-1.417-13.3 4.251-13.866 11.336-.566 7.086 4.527 14.454 9.621 18.989 5.66 5.101 21.506 10.202 22.921 10.486-2.829 8.785-5.093 18.138-6.791 27.774-.849 5.385-1.698 11.053-2.547 16.437v-5.101c-1.132-9.069-8.772-25.79-18.677-27.774-7.357-1.417-13.3 4.251-13.866 11.336-.566 7.086 4.528 14.454 9.622 18.989 5.093 4.534 18.676 9.069 22.072 10.202-.283 2.268-.566 4.252-.849 6.519-1.132 10.203-2.264 20.405-3.962 30.325-.566 3.4-1.131 7.085-1.697 10.486v-4.535c-1.132-9.069-8.773-25.79-18.677-27.774-7.358-1.417-13.3 4.251-13.866 11.336-.566 7.086 4.528 14.454 9.621 18.989 4.811 4.251 17.262 8.785 21.507 9.919-.849 3.401-1.415 7.085-2.264 10.486-.566 2.267-1.132 4.535-1.981 6.802-.849 2.267-1.415 4.534-2.264 6.802-1.415 4.251-3.113 8.502-4.811 12.753-1.131 2.834-2.263 5.668-3.395 8.219.566-3.401 1.415-10.486 1.415-11.053 0-5.952-1.981-15.871-6.226-22.673 0-.85 0-1.7-.283-2.55-1.132-7.086-7.64-12.187-14.715-10.203-9.904 2.551-16.13 19.839-16.696 28.908 0 .566.283 6.518.566 10.202-.566-2.267-.849-4.251-1.415-6.518-1.131-4.251-2.263-8.786-3.395-13.32-.566-2.268-1.415-4.535-1.981-6.802-.566-2.267-1.698-4.535-2.264-6.802-1.981-5.385-4.245-10.769-6.508-15.871 3.678-.85 17.261-4.251 22.638-8.502 5.376-4.251 11.036-11.053 11.036-18.138 0-7.085-5.66-13.037-13.017-12.47-10.187 1.134-18.96 17.288-20.657 26.074 0 .566-.849 7.085-.849 10.769-1.415-3.117-2.83-6.235-4.528-9.636-4.528-9.069-9.338-18.138-14.149-27.207l-4.245-8.502c1.415-.284 17.545-3.968 23.488-8.786 5.376-4.251 11.036-11.053 11.036-18.138 0-7.085-5.66-13.037-13.017-12.47-10.188 1.134-18.96 17.288-20.658 26.074 0 .566-.849 10.202-1.132 12.47-3.112-6.235-6.225-12.187-9.055-18.422-3.962-8.502-7.357-17.288-9.904-25.79.566-.284 17.544-3.968 23.77-8.786 5.377-4.251 11.036-11.053 11.036-18.138 0-7.085-5.659-13.037-13.017-12.47-10.187 1.134-18.959 17.288-20.657 26.074-.283.567-1.132 10.769-1.132 12.753-.283-.567-.283-1.134-.566-1.417-2.83-9.069-4.245-18.422-5.094-27.207-.566-5.102-.849-9.919-.849-14.737 3.113-.284 17.828-2.268 24.053-5.952 5.943-3.401 12.169-9.636 13.017-16.721.849-7.085-4.244-13.604-11.602-13.604-10.187 0-20.657 15.021-23.487 23.807-.283.566-1.132 5.384-1.981 9.069v-6.519c0-7.652.566-14.737.849-20.972.283-3.684.566-6.802 1.132-9.636 2.83-1.984 14.715-10.486 18.394-16.437 3.395-5.952 6.508-14.171 3.678-20.973-2.546-6.518-10.187-10.202-16.695-6.801-9.056 4.818-11.319 22.956-9.905 32.025 0 .85 3.679 12.753 3.679 12.47h.283c-.283 2.834-.849 5.951-1.132 9.352-.566 6.235-1.132 13.32-1.415 20.972-.283 7.652-.283 16.155.566 24.94.849 8.786 1.981 18.138 4.528 27.491v.283c-1.698-2.55-6.226-9.352-6.792-9.919-5.942-6.802-21.506-16.721-30.844-12.753-6.792 2.834-8.773 11.053-5.377 17.287 3.679 6.802 11.885 9.92 18.677 11.053z"/><path d="M765.367 206.156c.283 0 3.113-11.903 3.396-12.753 1.131-9.069-1.698-27.207-10.754-31.742-6.508-3.117-13.866.567-16.412 7.369-2.547 6.802.565 15.02 4.244 20.689 4.528 6.801 19.526 16.437 19.526 16.437z"/></g><defs><linearGradient id="paint0_linear" x1="957.41" y1="30.015" x2="948.5" y2="664.5" gradientUnits="userSpaceOnUse"><stop stop-color="#1A7F72"/><stop offset="1" stop-color="#7ADBAE"/></linearGradient><linearGradient id="paint1_linear" x1="927.441" y1="24.215" x2="921.413" y2="658.734" gradientUnits="userSpaceOnUse"><stop stop-color="#1A7F72"/><stop offset="1" stop-color="#7ADBAE"/></linearGradient><clipPath id="clip0"><path fill="#fff" transform="translate(20 120)" d="M0 0h1877v316H0z"/></clipPath><filter id="filter0_d" x="16" y="120" width="1885" height="324" filterUnits="userSpaceOnUse" color-interpolation-filters="sRGB"><feFlood flood-opacity="0" result="BackgroundImageFix"/><feColorMatrix in="SourceAlpha" values="0 0 0 0 0 0 0 0 0 0 0 0 0 0 0 0 0 0 127 0" result="hardAlpha"/><feOffset dy="4"/><feGaussianBlur stdDeviation="2"/><feColorMatrix values="0 0 0 0 0 0 0 0 0 0 0 0 0 0 0 0 0 0 0.2 0"/><feBlend in2="BackgroundImageFix" result="effect1_dropShadow"/><feBlend in="SourceGraphic" in2="effect1_dropShadow" result="shape"/></filter></defs></svg>