<svg width="55" height="55" fill="none" xmlns="http://www.w3.org/2000/svg"><path d="M27.5 0C12.315 0 0 12.315 0 27.5S12.315 55 27.5 55 55 42.685 55 27.5 42.685 0 27.5 0zm12.556 21.442c.012.27.018.542.018.815 0 8.341-6.349 17.96-17.959 17.96a17.866 17.866 0 01-9.675-2.836c.494.059.997.087 1.505.087 2.958 0 5.68-1.008 7.84-2.702a6.32 6.32 0 01-5.897-4.384 6.278 6.278 0 002.851-.108 6.314 6.314 0 01-5.064-6.187l.001-.08a6.27 6.27 0 002.859.789 6.306 6.306 0 01-2.809-5.255c0-1.156.313-2.24.855-3.172a17.92 17.92 0 0013.01 6.595 6.313 6.313 0 0110.756-5.756 12.659 12.659 0 004.009-1.532 6.336 6.336 0 01-2.776 3.49 12.588 12.588 0 003.625-.993 12.83 12.83 0 01-3.149 3.269z" fill="#000"/></svg>